HIERARCHY
ROOT pelvis
{
  OFFSET 0 100 0
  CHANNELS 6 Xposition Yposition Zposition Zrotation Xrotation Yrotation
  JOINT pelvis_right_femur
  {
    OFFSET -10.78128 -3.44521 -0.5502486
    CHANNELS 3 Zrotation Xrotation Yrotation
    JOINT right_femur_tibia
    {
      OFFSET -0.8047443 -44.0398 -0.1307829
      CHANNELS 3 Zrotation Xrotation Yrotation
      JOINT right_tibia_foot
      {
        OFFSET 3.006224 -47.83518 -5
        CHANNELS 3 Zrotation Xrotation Yrotation
        End Site
        {
          OFFSET 0 -5 15
        }
      }
    }
  }
  JOINT pelvis_left_femur
  {
    OFFSET 10.78128 -3.44521 -0.5502486
    CHANNELS 3 Zrotation Xrotation Yrotation
    JOINT left_femur_tibia
    {
      OFFSET 0.8047443 -44.0398 -0.1307829
      CHANNELS 3 Zrotation Xrotation Yrotation
      JOINT left_tibia_foot
      {
        OFFSET -4.370144 -48.10324 -4.275266
        CHANNELS 3 Zrotation Xrotation Yrotation
        End Site
        {
          OFFSET 0 -5 15
        }
      }
    }
  }
  JOINT pelvis_spine1
  {
    OFFSET 0 6.468898 -3.129235
    CHANNELS 3 Zrotation Xrotation Yrotation
    JOINT spine1
    {
      OFFSET 0 23.15396 4.99043
      CHANNELS 3 Zrotation Xrotation Yrotation
      JOINT spine2
      {
        OFFSET 0 20.79997 -5.064912
        CHANNELS 3 Zrotation Xrotation Yrotation
        JOINT neck
        {
          OFFSET 0 14.38658 9.616178
          CHANNELS 3 Zrotation Xrotation Yrotation
          End Site
          {
            OFFSET 0 20 0
          }
        }
      }
      JOINT right_manubrium
      {
        OFFSET -5.722621 16.35077 3.967754
        CHANNELS 3 Zrotation Xrotation Yrotation
        JOINT right_clavicle
        {
          OFFSET -13.16364 1.694482 -4.693211
          CHANNELS 3 Zrotation Xrotation Yrotation
          JOINT right_humerus
          {
            OFFSET -28.5034 -0.3100689 -2.792744
            CHANNELS 3 Zrotation Xrotation Yrotation
            JOINT right_radius
            {
              OFFSET -25.15693 0.02248979 -1.271978
              CHANNELS 3 Zrotation Xrotation Yrotation
              End Site
              {
                OFFSET -15 0 0
              }
            }
          }
        }
      }
      JOINT left_manubrium
      {
        OFFSET 5.722621 16.35077 3.967754
        CHANNELS 3 Zrotation Xrotation Yrotation
        JOINT left_clavicle
        {
          OFFSET 13.16364 1.694482 -4.693211
          CHANNELS 3 Zrotation Xrotation Yrotation
          JOINT left_humerus
          {
            OFFSET 29.39168 -1.063119 -2.237045
            CHANNELS 3 Zrotation Xrotation Yrotation
            JOINT left_radius
            {
              OFFSET 24.59957 -0.9528479 0.9047498
              CHANNELS 3 Zrotation Xrotation Yrotation
              End Site
              {
                OFFSET 15 -0 -0
              }
            }
          }
        }
      }
    }
  }
}
MOTION
Frames: 15
Frame Time: 0.0416666666667
-936.6515 106.3671 2790.145 -6.531444 -5.84643 -50.96658 5.307472 11.5436 2.079674 -0 9.665927 -0 -5.225176 -11.4176 -2.544543 1.410945 -20.45384 -3.574069 -0 36.93003 -0 -4.223688 -6.421976 19.26201 0.9228666 -1.471136 6.471422 2.02586 13.62504 -8.592128 3.098253 23.24707 -0.3784016 -4.439331 -26.93169 7.845928 -12.11491 -32.16481 10.98864 100.8246 20.85771 -14.65747 -0 0 19.27508 -19.28055 7.889089 9.084464 -2.180328 -17.49868 -4.844355 -85.82548 16.08472 26.00363 0 0 -13.76511 10.28783 15.40294 -6.253823
-940.751 105.3881 2794.108 -6.315192 -5.007511 -51.67729 5.260386 14.39586 1.934892 -0 10.11458 -0 -4.841289 -13.60567 -1.969374 2.606341 -23.20994 -3.081434 -0 27.09084 -0 -4.187091 -6.067658 19.42704 1.052009 -1.493949 6.541512 1.952992 13.78113 -8.513798 2.974601 23.11865 -0.2279918 -4.189258 -26.62926 7.666856 -11.80672 -32.09602 11.09927 100.5011 20.42349 -14.59004 -0 0 19.58252 -19.51497 8.154457 9.125845 -1.943518 -17.88951 -4.982187 -86.45417 15.87952 26.632 0 0 -13.28888 10.1202 15.53841 -5.866109
-945.012 104.2524 2798.397 -5.915657 -4.173301 -52.35792 4.869572 16.67688 1.893578 -0 11.62341 -0 -4.240921 -14.86412 -1.411275 3.060869 -24.65956 -3.016385 -0 19.62562 -0 -4.191195 -5.622497 19.30176 1.145248 -1.49955 6.637977 1.877286 13.93118 -8.425467 2.890806 23.00578 -0.1684548 -4.037727 -26.37061 7.509758 -11.56427 -32.19515 11.18202 100.1918 20.16889 -14.34742 -0 0 20.08555 -19.6995 8.392314 9.21541 -1.838816 -18.09491 -5.066211 -87.03389 15.69459 27.38945 0 0 -12.60573 9.898371 15.62805 -5.492399
-949.5016 103.2149 2803.055 -5.316682 -3.690898 -53.00344 3.835392 18.45804 1.981926 -0 14.49837 -0 -3.711468 -14.38568 -0.8662286 2.397864 -24.88987 -3.767763 -0 15.55297 -0 -4.216669 -5.496767 19.12926 1.210596 -1.487874 6.755008 1.805877 14.074 -8.333936 2.859486 22.91444 -0.2180312 -4.019241 -26.19214 7.392937 -11.43673 -32.49315 11.22789 99.94032 20.05342 -13.918 -0 0 20.77979 -19.83819 8.611998 9.37843 -1.897357 -18.08285 -5.084317 -87.54798 15.57444 28.2776 0 0 -11.732 9.581349 15.67668 -5.098427
-954.2387 102.4923 2808.042 -4.669937 -3.800239 -53.53808 2.209573 19.67783 2.114435 -0 19.19538 -0 -3.550237 -11.54168 -0.3673129 0.6602299 -23.96643 -5.373714 -0 14.788 -0 -4.107493 -5.929276 19.17402 1.256579 -1.458942 6.887165 1.743596 14.21313 -8.243181 2.894315 22.85059 -0.3969716 -4.16995 -26.12588 7.334088 -11.46931 -33.02794 11.22853 99.78554 20.03412 -13.279 -0 0 21.67317 -19.94178 8.833137 9.650886 -2.153573 -17.81923 -5.024439 -87.99 15.56639 29.31392 0 0 -10.66946 9.120119 15.69288 -4.63909
-959.1641 102.2554 2813.231 -4.22016 -4.475277 -53.82918 0.4452156 19.9889 2.114781 -0 26.05391 -0 -3.822395 -6.423981 0.04486942 -1.647455 -21.91037 -7.389898 -0 16.26578 -0 -3.650063 -6.832259 19.49853 1.288408 -1.410118 7.029551 1.69198 14.35325 -8.154847 3.005374 22.81795 -0.7198633 -4.514947 -26.19125 7.344733 -11.68961 -33.82876 11.17737 99.75247 20.08831 -12.40812 -0 0 22.77843 -20.02069 9.074157 10.06266 -2.633528 -17.27829 -4.875214 -88.3599 15.70236 30.51645 0 0 -9.410024 8.477184 15.68209 -4.082022
-964.132 102.6124 2818.437 -4.145634 -5.408804 -53.7533 -0.8483207 18.77475 1.847698 -0 34.78829 -0 -4.336766 -0.1018199 0.2737921 -3.802181 -18.74077 -9.112302 -0 18.44527 -0 -2.777414 -7.901169 19.86609 1.304353 -1.334236 7.176821 1.64954 14.49548 -8.069996 3.195922 22.81813 -1.189804 -5.059196 -26.39086 7.42694 -12.10034 -34.90119 11.07018 99.84883 20.23089 -11.29804 -0 0 24.09849 -20.07755 9.339031 10.62095 -3.345986 -16.45089 -4.626968 -88.6537 15.98687 31.88162 0 0 -7.948997 7.645712 15.64251 -3.431296
-968.9488 103.556 2823.468 -4.44624 -6.183441 -53.27372 -1.317169 15.48506 1.386531 -0 44.04436 -0 -4.861927 5.760386 0.135929 -5.241443 -14.58771 -10.04697 -0 19.93066 -0 -1.69656 -8.904973 19.93063 1.293822 -1.220518 7.32153 1.613039 14.63405 -7.990808 3.460697 22.85308 -1.794868 -5.782958 -26.70902 7.572543 -12.67782 -36.21406 10.90622 100.0656 20.51644 -9.971814 -0 0 25.60626 -20.10323 9.607206 11.29915 -4.276349 -15.35212 -4.275864 -88.85212 16.39433 33.36203 0 0 -6.305304 6.664498 15.56757 -2.742478
-973.4478 104.9087 2828.185 -4.958628 -6.514613 -52.46844 -1.07181 10.09537 0.9830078 -0 51.57358 -0 -5.335306 9.725176 -0.47043 -5.812053 -9.77909 -10.21597 -0 19.94503 -0 -0.7197481 -9.846225 19.55519 1.23803 -1.059493 7.453082 1.579185 14.75521 -7.92119 3.784579 22.92827 -2.504795 -6.638842 -27.11062 7.763878 -13.37183 -37.68729 10.69148 100.3771 21.0228 -8.49852 -0 0 27.22216 -20.07762 9.829966 12.03227 -5.379696 -14.03165 -3.8324 -88.91388 16.87301 34.84891 0 0 -4.546158 5.628044 15.45439 -2.125026
-977.5584 106.3394 2832.537 -5.460443 -6.392713 -51.49734 -0.5075756 3.2647 0.7688163 -0 55.153 -0 -5.831296 11.1804 -1.379681 -5.735846 -4.793145 -10.01656 -0 18.49738 -0 -0.005720564 -10.87191 18.88887 1.11446 -0.8515686 7.558883 1.546231 14.83871 -7.866027 4.141854 23.05338 -3.267876 -7.550783 -27.54226 7.976522 -14.1067 -39.18575 10.44289 100.7406 21.81807 -7.002591 -0 0 28.80033 -19.97534 9.937504 12.72169 -6.572939 -12.58394 -3.330558 -88.77975 17.3546 36.16862 0 0 -2.808104 4.685731 15.31318 -1.726533
-981.3268 107.466 2836.551 -5.763003 -6.029905 -50.53744 -0.01688571 -3.980168 0.5435941 -0 53.60741 -0 -6.317688 10.34845 -2.265672 -5.396249 -0.08298251 -9.832716 -0 16.17714 -0 0.4422461 -12.15274 18.13322 0.9057029 -0.6153285 7.628419 1.514988 14.86231 -7.829331 4.49809 23.23775 -4.01219 -8.420483 -27.94095 8.185166 -14.78875 -40.53263 10.18976 101.0996 22.92015 -5.652587 -0 0 30.14298 -19.77589 9.860671 13.25539 -7.734615 -11.14671 -2.829328 -88.39314 17.76887 37.10959 0 0 -1.294556 4.017483 15.16851 -1.692847
-984.8899 107.9861 2840.313 -5.737835 -5.664822 -49.71442 0.1598871 -10.72706 -0.06961475 -0 47.23951 -0 -6.568523 7.996044 -2.894201 -5.137976 4.080347 -9.778901 -0 13.74266 -0 0.6309335 -13.83722 17.34284 0.6101535 -0.3880522 7.657977 1.488774 14.80926 -7.812289 4.816126 23.48098 -4.656104 -9.146007 -28.25187 8.371066 -15.32471 -41.55082 9.967889 101.3958 24.26893 -4.620485 -0 0 31.05378 -19.4752 9.563409 13.54312 -8.723793 -9.876832 -2.399591 -87.73455 18.06079 37.48661 0 0 -0.2309209 3.780166 15.04617 -2.110243
-988.4304 107.7707 2843.942 -5.322692 -5.393556 -49.06161 -0.005277079 -16.43575 -1.263125 -0 37.60412 -0 -6.398712 5.183629 -3.212245 -5.150735 7.628442 -9.715529 -0 11.83028 -0 0.5793253 -15.93729 16.47186 0.2488631 -0.2138092 7.651701 1.472472 14.67635 -7.812868 5.064835 23.76451 -5.127965 -9.648965 -28.44734 8.526506 -15.64805 -42.11926 9.806441 101.5861 25.72968 -4.025397 -0 0 31.41038 -19.09273 9.06918 13.55193 -9.419172 -8.908027 -2.09939 -86.85062 18.20477 37.21769 -0 0 0.2138982 4.041756 14.95351 -2.955707
-992.133 106.8874 2847.578 -4.556792 -5.160347 -48.53558 -0.3259005 -20.8885 -2.825973 -0 26.89989 -0 -5.880334 2.96866 -3.300071 -5.429747 10.61416 -9.442544 -0 10.91453 -0 0.3785338 -18.16088 15.50331 -0.1364103 -0.1250721 7.617245 1.471478 14.47724 -7.828103 5.22618 24.05242 -5.385622 -9.895848 -28.53397 8.652838 -15.74086 -42.20953 9.716137 101.6579 27.12656 -3.899023 -0 0 31.20661 -18.66899 8.459909 13.31716 -9.757813 -8.314875 -1.953458 -85.85093 18.21054 36.36042 0 0 -0.009668171 4.744339 14.87348 -4.090842
-996.152 105.5551 2851.351 -3.607351 -4.869849 -48.07197 -0.4923917 -24.00165 -4.250151 -0 17.24704 -0 -5.274957 2.007347 -3.309414 -5.815 13.11277 -8.890903 -0 11.37764 -0 0.1025529 -19.93855 14.4821 -0.4932876 -0.1315036 7.559473 1.491277 14.23718 -7.858076 5.295837 24.30287 -5.421841 -9.897869 -28.5431 8.75409 -15.63655 -41.87358 9.68846 101.6341 28.28428 -4.202402 -0 0 30.52746 -18.25473 7.842474 12.91665 -9.743613 -8.109636 -1.952884 -84.86704 18.11513 35.07219 0 0 -0.8372825 5.730131 14.78116 -5.313325
